<svg id="Capa_1" enable-background="new 0 0 512 512" height="512" viewBox="0 0 512 512" width="512" xmlns="http://www.w3.org/2000/svg"><g><path d="m407 362c-35.369 0-74.269 13.08-93.879 40.96l-103.401-20.361c1.683-17.016-4.207-34.182-18.396-48.694l64.223-45.353c17.53 8.729 38.524 13.448 60.453 13.448 49.914 0 105-27.303 105-75 0-43.146-45.666-69.814-90-74.255v-32.745h120v-120h-150v152.745c-44.388 4.446-90 31.28-90 74.255 0 15.809 6.526 30.669 18.676 43.095l-64.223 45.353c-17.53-8.729-38.524-13.448-60.453-13.448-49.914 0-105 27.303-105 75 0 47.716 55.118 75 105 75 35.658 0 74.389-13.252 93.879-40.96l103.401 20.361c-5.02 50.757 52.778 80.599 104.72 80.599 49.914 0 105-27.303 105-75 0-47.716-55.118-75-105-75zm-76-332h90v60h-90zm-30 152.948v44.052h30v-44.052c33.758 4.303 60 22.731 60 44.052 0 24.393-34.346 45-75 45s-75-20.607-75-45c0-21.321 26.242-39.749 60-44.052zm-196 239.052c-40.654 0-75-20.607-75-45s34.346-45 75-45 75 20.607 75 45-34.346 45-75 45zm302 60c-40.654 0-75-20.607-75-45s34.346-45 75-45 75 20.607 75 45-34.346 45-75 45z"/></g></svg>